<svg xmlns="http://www.w3.org/2000/svg" width="50.043" height="65.952" viewBox="0 0 50.043 65.952">
  <g id="Group_980" data-name="Group 980" transform="translate(-1381.5 -6329.995)">
    <path id="Union_9" data-name="Union 9" d="M10.029-9987.812a22.828,22.828,0,0,1-7.791-17.227v-26.65l22.274-10.824,22.294,10.824v26.65a22.837,22.837,0,0,1-6.555,16.063l-2.238,1.989a21.906,21.906,0,0,1-13.491,4.646,21.864,21.864,0,0,1-12.255-3.751m-12.267-47v28.051A24.759,24.759,0,0,0,24.522-9980.1a24.759,24.759,0,0,0,24.521-24.935v-28.051L24.511-10045Z" transform="translate(1382 16375.551)" fill="#f0e8d9" stroke="rgba(0,0,0,0)" stroke-width="1"/>
    <path id="Icon_feather-facebook" data-name="Icon feather-facebook" d="M27,3H22.5A7.5,7.5,0,0,0,15,10.5V15H10.5v6H15V33h6V21h4.5L27,15H21V10.5A1.5,1.5,0,0,1,22.5,9H27Z" transform="translate(1387.771 6345)" fill="none" stroke="#f0e8d9" stroke-linecap="round" stroke-linejoin="round" stroke-width="2"/>
  </g>
</svg>
