<svg xmlns="http://www.w3.org/2000/svg" width="50.043" height="65.952" viewBox="0 0 50.043 65.952">
  <g id="Group_979" data-name="Group 979" transform="translate(-1381.5 -6414.995)">
    <path id="Union_10" data-name="Union 10" d="M10.029-9987.812a22.828,22.828,0,0,1-7.791-17.227v-26.65l22.274-10.824,22.294,10.824v26.65a22.837,22.837,0,0,1-6.555,16.063l-2.238,1.989a21.906,21.906,0,0,1-13.491,4.646,21.864,21.864,0,0,1-12.255-3.751m-12.267-47v28.051A24.759,24.759,0,0,0,24.522-9980.1a24.759,24.759,0,0,0,24.521-24.935v-28.051L24.511-10045Z" transform="translate(1382 16460.551)" fill="#f0e8d9" stroke="rgba(0,0,0,0)" stroke-width="1"/>
    <g id="Icon_feather-instagram" data-name="Icon feather-instagram" transform="translate(1392.496 6433.975)">
      <path id="Path_605" data-name="Path 605" d="M8.513,3H19.538a5.513,5.513,0,0,1,5.513,5.513V19.538a5.513,5.513,0,0,1-5.513,5.513H8.513A5.513,5.513,0,0,1,3,19.538V8.513A5.513,5.513,0,0,1,8.513,3Z" fill="none" stroke="#f0e8d9" stroke-linecap="round" stroke-linejoin="round" stroke-width="2"/>
      <path id="Path_606" data-name="Path 606" d="M20.837,15.7a4.41,4.41,0,1,1-3.716-3.716A4.41,4.41,0,0,1,20.837,15.7Z" transform="translate(-2.402 -2.367)" fill="none" stroke="#f0e8d9" stroke-linecap="round" stroke-linejoin="round" stroke-width="2"/>
      <path id="Path_607" data-name="Path 607" d="M13.065,12.364a.5.5,0,1,1-.424-.424.5.5,0,0,1,.424.424Z" transform="translate(7.921 -4.876)" fill="none" stroke="#f0e8d9" stroke-linecap="round" stroke-linejoin="round" stroke-width="1"/>
    </g>
  </g>
</svg>
