<svg xmlns="http://www.w3.org/2000/svg" width="50.043" height="65.952" viewBox="0 0 50.043 65.952">
  <path id="Union_6" data-name="Union 6" d="M4.985-9989.985a5.95,5.95,0,0,1-.965-1.387A25.089,25.089,0,0,1,0-10005.038v-28.051L24.511-10045l24.531,11.911v28.051A24.758,24.758,0,0,1,24.521-9980.1,24.366,24.366,0,0,1,4.985-9989.985Zm5.044,2.173,2.239,1.72a21.868,21.868,0,0,0,12.254,3.751,21.9,21.9,0,0,0,13.49-4.644l2.239-1.989a22.831,22.831,0,0,0,6.555-16.063v-24.231l-15.7,15.7-4.16-4.16,15.884-15.886-18.322-8.895-22.273,10.822v26.651a22.939,22.939,0,0,0,1.669,8.619,5.918,5.918,0,0,1,5.4-3.5,5.916,5.916,0,0,1,5.912,5.909,5.919,5.919,0,0,1-5.527,5.9Q9.857-9987.962,10.028-9987.812Zm-4.22-6.2a3.5,3.5,0,0,0,3.5,3.5,3.5,3.5,0,0,0,3.5-3.5,3.5,3.5,0,0,0-3.5-3.5A3.5,3.5,0,0,0,5.808-9994.014Zm24.552-23.718.749.747,15.027-15.029-1-.488Zm-12.852,8.088a5.916,5.916,0,0,1,5.912-5.909,5.916,5.916,0,0,1,5.912,5.909,5.917,5.917,0,0,1-5.912,5.911A5.917,5.917,0,0,1,17.508-10009.644Zm2.413,0a3.5,3.5,0,0,0,3.5,3.5,3.5,3.5,0,0,0,3.5-3.5,3.5,3.5,0,0,0-3.5-3.5A3.5,3.5,0,0,0,19.921-10009.644ZM8.1-10026.776a5.918,5.918,0,0,1,5.912-5.911,5.917,5.917,0,0,1,5.909,5.911,5.916,5.916,0,0,1-5.909,5.909A5.916,5.916,0,0,1,8.1-10026.776Zm2.413,0a3.5,3.5,0,0,0,3.5,3.5,3.5,3.5,0,0,0,3.5-3.5,3.5,3.5,0,0,0-3.5-3.5A3.5,3.5,0,0,0,10.512-10026.776Z" transform="translate(0.5 10045.556)" fill="#262b3b" stroke="rgba(0,0,0,0)" stroke-width="1"/>
</svg>
