<svg xmlns="http://www.w3.org/2000/svg" width="49.043" height="64.896" viewBox="0 0 49.043 64.896">
  <path id="Union_4" data-name="Union 4" d="M0-10005.038v-28.051L24.511-10045l24.531,11.911v28.051A24.761,24.761,0,0,1,24.521-9980.1,24.761,24.761,0,0,1,0-10005.038Zm2.239-26.651v26.651a22.826,22.826,0,0,0,7.79,17.226l2.239,1.72a21.856,21.856,0,0,0,12.254,3.751,21.9,21.9,0,0,0,13.49-4.644l2.239-1.989a22.845,22.845,0,0,0,6.555-16.063v-26.651l-22.293-10.822Zm17.354,31.03a4.934,4.934,0,0,1,4.928-4.929,4.934,4.934,0,0,1,4.928,4.929,4.934,4.934,0,0,1-4.928,4.929A4.934,4.934,0,0,1,19.593-10000.659Zm2.413,0a2.519,2.519,0,0,0,2.516,2.516,2.519,2.519,0,0,0,2.516-2.516,2.519,2.519,0,0,0-2.516-2.516A2.519,2.519,0,0,0,22.005-10000.659Zm2.516-9.043a10.712,10.712,0,0,0-7.626,3.159l-1.7-1.707a13.1,13.1,0,0,1,9.33-3.864,13.1,13.1,0,0,1,9.33,3.864l-1.7,1.707A10.712,10.712,0,0,0,24.521-10009.7Zm0-6.05a16.527,16.527,0,0,0-11.765,4.873l-1.7-1.707a18.929,18.929,0,0,1,13.47-5.579,18.929,18.929,0,0,1,13.47,5.579l-1.7,1.707A16.527,16.527,0,0,0,24.521-10015.752Zm0-6.2a22.8,22.8,0,0,0-16.225,6.721l-1.707-1.707a25.191,25.191,0,0,1,17.932-7.427,25.191,25.191,0,0,1,17.932,7.427l-1.707,1.707A22.8,22.8,0,0,0,24.521-10021.953Z" transform="translate(0 10045)" fill="#262b3b"/>
</svg>
