<svg xmlns="http://www.w3.org/2000/svg" width="50.043" height="65.952" viewBox="0 0 50.043 65.952">
  <path id="Union_7" data-name="Union 7" d="M0-10005.038v-28.051L24.511-10045l24.531,11.911v28.051A24.758,24.758,0,0,1,24.521-9980.1,24.759,24.759,0,0,1,0-10005.038Zm2.239-26.651v26.651a22.826,22.826,0,0,0,7.79,17.226l2.239,1.72a21.868,21.868,0,0,0,12.254,3.751,21.9,21.9,0,0,0,13.49-4.644l2.239-1.989a22.831,22.831,0,0,0,6.555-16.063v-26.651l-22.293-10.822Zm11.622,34.618a2.454,2.454,0,0,1-2.45-2.451v-24.932a2.453,2.453,0,0,1,2.45-2.448H35.183a2.453,2.453,0,0,1,2.45,2.448v24.932a2.454,2.454,0,0,1-2.45,2.451Zm-.038-27.383v24.932a.043.043,0,0,0,.038.038H35.183a.043.043,0,0,0,.038-.038v-24.932a.042.042,0,0,0-.038-.035H13.86A.042.042,0,0,0,13.822-10024.454Zm5.569,19.767v-13.687H20.6v-.027h5.246a4.726,4.726,0,0,1,4.722,4.722,4.726,4.726,0,0,1-4.722,4.722H21.8v4.271Zm6.451-6.683a2.312,2.312,0,0,0,2.309-2.31,2.312,2.312,0,0,0-2.309-2.31H21.8v4.619Z" transform="translate(0.5 10045.556)" fill="#262b3b" stroke="rgba(0,0,0,0)" stroke-width="1"/>
</svg>
