<svg xmlns="http://www.w3.org/2000/svg" width="50.043" height="65.952" viewBox="0 0 50.043 65.952">
  <path id="Union_5" data-name="Union 5" d="M0-10005.038v-28.051L24.511-10045l24.531,11.911v28.051A24.758,24.758,0,0,1,24.521-9980.1,24.759,24.759,0,0,1,0-10005.038Zm24.521,22.7q.414,0,.824-.016v-40.292l5.521-5.892,5.521,5.892v36.814q.837-.539,1.623-1.15l2.239-1.989a22.831,22.831,0,0,0,6.555-16.063v-26.651l-22.293-10.822-22.273,10.822v26.651a22.826,22.826,0,0,0,7.79,17.226l2.239,1.72c.128.086.258.172.388.255v-36.812l5.521-5.892,5.521,5.892v40.292Q24.108-9982.341,24.521-9982.342Zm3.237-39.353v39.113a21.812,21.812,0,0,0,6.217-1.906v-37.207l-3.108-3.317Zm-6.474,39.113v-39.113l-3.108-3.317-3.108,3.317v37.205A21.793,21.793,0,0,0,21.284-9982.581Z" transform="translate(0.5 10045.556)" fill="#262b3b" stroke="rgba(0,0,0,0)" stroke-width="1"/>
</svg>
